<svg id="SvgjsSvg1006" width="1194" height="750" xmlns="http://www.w3.org/2000/svg" version="1.1" xmlns:xlink="http://www.w3.org/1999/xlink" xmlns:svgjs="http://svgjs.com/svgjs"><defs id="SvgjsDefs1007"><marker id="SvgjsMarker1026" markerWidth="16" markerHeight="12" refX="16" refY="6" viewBox="0 0 16 12" orient="auto" markerUnits="userSpaceOnUse" stroke-dasharray="0,0"><path id="SvgjsPath1027" d="M0,2 L14,6 L0,11 L0,2" fill="#323232" stroke="#323232" stroke-width="2"></path></marker><marker id="SvgjsMarker1062" markerWidth="16" markerHeight="12" refX="16" refY="6" viewBox="0 0 16 12" orient="auto" markerUnits="userSpaceOnUse" stroke-dasharray="0,0"><path id="SvgjsPath1063" d="M0,2 L14,6 L0,11 L0,2" fill="#323232" stroke="#323232" stroke-width="2"></path></marker><marker id="SvgjsMarker1066" markerWidth="16" markerHeight="12" refX="16" refY="6" viewBox="0 0 16 12" orient="auto" markerUnits="userSpaceOnUse" stroke-dasharray="0,0"><path id="SvgjsPath1067" d="M0,2 L14,6 L0,11 L0,2" fill="#323232" stroke="#323232" stroke-width="2"></path></marker><marker id="SvgjsMarker1070" markerWidth="16" markerHeight="12" refX="16" refY="6" viewBox="0 0 16 12" orient="auto" markerUnits="userSpaceOnUse" stroke-dasharray="0,0"><path id="SvgjsPath1071" d="M0,2 L14,6 L0,11 L0,2" fill="#323232" stroke="#323232" stroke-width="2"></path></marker><marker id="SvgjsMarker1074" markerWidth="16" markerHeight="12" refX="16" refY="6" viewBox="0 0 16 12" orient="auto" markerUnits="userSpaceOnUse" stroke-dasharray="0,0"><path id="SvgjsPath1075" d="M0,2 L14,6 L0,11 L0,2" fill="#323232" stroke="#323232" stroke-width="2"></path></marker><marker id="SvgjsMarker1122" markerWidth="16" markerHeight="12" refX="16" refY="6" viewBox="0 0 16 12" orient="auto" markerUnits="userSpaceOnUse" stroke-dasharray="0,0"><path id="SvgjsPath1123" d="M0,2 L14,6 L0,11 L0,2" fill="#323232" stroke="#323232" stroke-width="2"></path></marker><marker id="SvgjsMarker1148" markerWidth="16" markerHeight="12" refX="16" refY="6" viewBox="0 0 16 12" orient="auto" markerUnits="userSpaceOnUse" stroke-dasharray="0,0"><path id="SvgjsPath1149" d="M0,2 L14,6 L0,11 L0,2" fill="#323232" stroke="#323232" stroke-width="2"></path></marker></defs><g id="SvgjsG1008" transform="translate(508,25)"><path id="SvgjsPath1009" d="M 0 4Q 0 0 4 0L 139 0Q 143 0 143 4L 143 54Q 143 58 139 58L 4 58Q 0 58 0 54Z" stroke="rgba(50,50,50,1)" stroke-width="2" fill-opacity="1" fill="#ffffff"></path><g id="SvgjsG1010"><text id="SvgjsText1011" font-family="微软雅黑" text-anchor="middle" font-size="17px" width="123px" fill="#323232" font-weight="400" align="middle" anchor="middle" family="微软雅黑" size="17px" weight="400" font-style="" opacity="1" y="15.95" transform="rotate(0)"><tspan id="SvgjsTspan1012" dy="21" x="71.5"><tspan id="SvgjsTspan1013" style="text-decoration:;">递增矩阵</tspan></tspan></text></g></g><g id="SvgjsG1014" transform="translate(483.25,129)"><path id="SvgjsPath1015" d="M 0 55.5L 96.25 0L 192.5 55.5L 96.25 111Z" stroke="rgba(50,50,50,1)" stroke-width="2" fill-opacity="1" fill="#ffffff"></path><g id="SvgjsG1016"><text id="SvgjsText1017" font-family="微软雅黑" text-anchor="middle" font-size="17px" width="173px" fill="#323232" font-weight="400" align="middle" anchor="middle" family="微软雅黑" size="17px" weight="400" font-style="" opacity="1" y="22.005" transform="rotate(0)"><tspan id="SvgjsTspan1018" dy="21" x="96.5"><tspan id="SvgjsTspan1019" style="text-decoration:;">搜索target</tspan></tspan><tspan id="SvgjsTspan1020" dy="21" x="96.5"><tspan id="SvgjsTspan1021" style="text-decoration:;">or</tspan></tspan><tspan id="SvgjsTspan1022" dy="21" x="96.5"><tspan id="SvgjsTspan1023" style="text-decoration:;">Top-k?</tspan></tspan></text></g></g><g id="SvgjsG1024"><path id="SvgjsPath1025" d="M579.5 83L579.5 106L579.5 106L579.5 129" stroke="#323232" stroke-width="2" fill="none" marker-end="url(#SvgjsMarker1026)"></path></g><g id="SvgjsG1028" transform="translate(709,142)"><path id="SvgjsPath1029" d="M 0 0L 120 0L 120 40L 0 40Z" stroke="none" fill="none"></path><g id="SvgjsG1030"><text id="SvgjsText1031" font-family="微软雅黑" text-anchor="middle" font-size="17px" width="120px" fill="#323232" font-weight="400" align="middle" anchor="middle" family="微软雅黑" size="17px" weight="400" font-style="" opacity="1" y="6.95" transform="rotate(0)"><tspan id="SvgjsTspan1032" dy="21" x="60"><tspan id="SvgjsTspan1033" style="text-decoration:;">搜索target</tspan></tspan></text></g></g><g id="SvgjsG1034" transform="translate(363.25,147)"><path id="SvgjsPath1035" d="M 0 0L 120 0L 120 40L 0 40Z" stroke="none" fill="none"></path><g id="SvgjsG1036"><text id="SvgjsText1037" font-family="微软雅黑" text-anchor="middle" font-size="17px" width="120px" fill="#323232" font-weight="400" align="middle" anchor="middle" family="微软雅黑" size="17px" weight="400" font-style="" opacity="1" y="6.95" transform="rotate(0)"><tspan id="SvgjsTspan1038" dy="21" x="60"><tspan id="SvgjsTspan1039" style="text-decoration:;">Top-k</tspan></tspan></text></g></g><g id="SvgjsG1040" transform="translate(136.25,331)"><path id="SvgjsPath1041" d="M 0 55.5L 96.25 0L 192.5 55.5L 96.25 111Z" stroke="rgba(50,50,50,1)" stroke-width="2" fill-opacity="1" fill="#ffffff"></path><g id="SvgjsG1042"><text id="SvgjsText1043" font-family="微软雅黑" text-anchor="middle" font-size="17px" width="173px" fill="#323232" font-weight="400" align="middle" anchor="middle" family="微软雅黑" size="17px" weight="400" font-style="" opacity="1" y="22.005" transform="rotate(0)"><tspan id="SvgjsTspan1044" dy="21" x="96.5"><tspan id="SvgjsTspan1045" style="text-decoration:;">强递增</tspan></tspan><tspan id="SvgjsTspan1046" dy="21" x="96.5"><tspan id="SvgjsTspan1047" style="text-decoration:;">or</tspan></tspan><tspan id="SvgjsTspan1048" dy="21" x="96.5"><tspan id="SvgjsTspan1049" style="text-decoration:;">弱递增</tspan></tspan></text></g></g><g id="SvgjsG1050" transform="translate(811.25,331)"><path id="SvgjsPath1051" d="M 0 55.5L 96.25 0L 192.5 55.5L 96.25 111Z" stroke="rgba(50,50,50,1)" stroke-width="2" fill-opacity="1" fill="#ffffff"></path><g id="SvgjsG1052"><text id="SvgjsText1053" font-family="微软雅黑" text-anchor="middle" font-size="17px" width="173px" fill="#323232" font-weight="400" align="middle" anchor="middle" family="微软雅黑" size="17px" weight="400" font-style="" opacity="1" y="22.005" transform="rotate(0)"><tspan id="SvgjsTspan1054" dy="21" x="96.5"><tspan id="SvgjsTspan1055" style="text-decoration:;">强递增</tspan></tspan><tspan id="SvgjsTspan1056" dy="21" x="96.5"><tspan id="SvgjsTspan1057" style="text-decoration:;">or</tspan></tspan><tspan id="SvgjsTspan1058" dy="21" x="96.5"><tspan id="SvgjsTspan1059" style="text-decoration:;">弱递增</tspan></tspan></text></g></g><g id="SvgjsG1060"><path id="SvgjsPath1061" d="M481.426423563649 186.180847955711L481.426423563649 185.5904239778555L232.5 185.5904239778555L232.5 331" stroke="#323232" stroke-width="2" fill="none" marker-end="url(#SvgjsMarker1062)"></path></g><g id="SvgjsG1064"><path id="SvgjsPath1065" d="M675.75 184.5L907.5 184.5L907.5 331" stroke="#323232" stroke-width="2" fill="none" marker-end="url(#SvgjsMarker1066)"></path></g><g id="SvgjsG1068"><path id="SvgjsPath1069" d="M811.25 386.5L735.5 386.5L735.5 588" stroke="#323232" stroke-width="2" fill="none" marker-end="url(#SvgjsMarker1070)"></path></g><g id="SvgjsG1072"><path id="SvgjsPath1073" d="M1003.75 386.5L1066.5 386.5L1066.5 588" stroke="#323232" stroke-width="2" fill="none" marker-end="url(#SvgjsMarker1074)"></path></g><g id="SvgjsG1076" transform="translate(717,352)"><path id="SvgjsPath1077" d="M 0 0L 120 0L 120 40L 0 40Z" stroke="none" fill="none"></path><g id="SvgjsG1078"><text id="SvgjsText1079" font-family="微软雅黑" text-anchor="middle" font-size="17px" width="120px" fill="#323232" font-weight="700" align="middle" anchor="middle" family="微软雅黑" size="17px" weight="700" font-style="" opacity="1" y="6.95" transform="rotate(0)"><tspan id="SvgjsTspan1080" dy="21" x="60"><tspan id="SvgjsTspan1081" style="text-decoration:;">强</tspan></tspan></text></g></g><g id="SvgjsG1082" transform="translate(992,352)"><path id="SvgjsPath1083" d="M 0 0L 120 0L 120 40L 0 40Z" stroke="none" fill="none"></path><g id="SvgjsG1084"><text id="SvgjsText1085" font-family="微软雅黑" text-anchor="middle" font-size="17px" width="120px" fill="#323232" font-weight="700" align="middle" anchor="middle" family="微软雅黑" size="17px" weight="700" font-style="" opacity="1" y="6.95" transform="rotate(0)"><tspan id="SvgjsTspan1086" dy="21" x="60"><tspan id="SvgjsTspan1087" style="text-decoration:;">弱</tspan></tspan></text></g></g><g id="SvgjsG1088" transform="translate(637,585)"><path id="SvgjsPath1089" d="M 18 0Q 9 0 9 9L 9 61Q 9 70 0 70Q 9 70 9 79L 9 131Q 9 140 18 140" stroke="rgba(50,50,50,1)" stroke-width="2" fill="none"></path><path id="SvgjsPath1090" d="M 182 140Q 191 140 191 131L 191 79Q 191 70 200 70Q 191 70 191 61L 191 9Q 191 0 182 0" stroke="rgba(50,50,50,1)" stroke-width="2" fill="none"></path><path id="SvgjsPath1091" d="M 0 0L 200 0L 200 140L 0 140Z" stroke="none" fill="none"></path><g id="SvgjsG1092"><text id="SvgjsText1093" font-family="微软雅黑" text-anchor="start" font-size="13px" width="180px" fill="#323232" font-weight="400" align="middle" anchor="start" family="微软雅黑" size="13px" weight="400" font-style="" opacity="1" y="4.05" transform="rotate(0)"><tspan id="SvgjsTspan1094" dy="16" x="10"><tspan id="SvgjsTspan1095" style="text-decoration:;">1. 行列二分</tspan></tspan><tspan id="SvgjsTspan1096" dy="16" x="10"><tspan id="SvgjsTspan1097" style="text-decoration:;">先行二分,找到行坐标;</tspan></tspan><tspan id="SvgjsTspan1098" dy="16" x="10"><tspan id="SvgjsTspan1099" style="text-decoration:;">在列二分, 找到列坐标</tspan></tspan><tspan id="SvgjsTspan1100" dy="16" x="10"><tspan id="SvgjsTspan1101" style="text-decoration:;"> </tspan></tspan><tspan id="SvgjsTspan1102" dy="16" x="10"><tspan id="SvgjsTspan1103" style="text-decoration:;">2. 全局二分</tspan></tspan><tspan id="SvgjsTspan1104" dy="16" x="10"><tspan id="SvgjsTspan1105" style="text-decoration:;">以[[0][0], [n-1][n-1]]为区间,进行</tspan></tspan><tspan id="SvgjsTspan1106" dy="16" x="10"><tspan id="SvgjsTspan1107" style="text-decoration:;">二分(注意跟II.2的区别), 每次得</tspan></tspan><tspan id="SvgjsTspan1108" dy="16" x="10"><tspan id="SvgjsTspan1109" style="text-decoration:;">到中间值在matrix中, 再次比较</tspan></tspan></text></g></g><g id="SvgjsG1110" transform="translate(969,585)"><path id="SvgjsPath1111" d="M 18 0Q 9 0 9 9L 9 61Q 9 70 0 70Q 9 70 9 79L 9 131Q 9 140 18 140" stroke="rgba(50,50,50,1)" stroke-width="2" fill="none"></path><path id="SvgjsPath1112" d="M 182 140Q 191 140 191 131L 191 79Q 191 70 200 70Q 191 70 191 61L 191 9Q 191 0 182 0" stroke="rgba(50,50,50,1)" stroke-width="2" fill="none"></path><path id="SvgjsPath1113" d="M 0 0L 200 0L 200 140L 0 140Z" stroke="none" fill="none"></path><g id="SvgjsG1114"><text id="SvgjsText1115" font-family="微软雅黑" text-anchor="start" font-size="13px" width="180px" fill="#323232" font-weight="400" align="middle" anchor="start" family="微软雅黑" size="13px" weight="400" font-style="" opacity="1" y="52.05" transform="rotate(0)"><tspan id="SvgjsTspan1116" dy="16" x="10"><tspan id="SvgjsTspan1117" style="text-decoration:;">O(mn)搜索</tspan></tspan><tspan id="SvgjsTspan1118" dy="16" x="10"><tspan id="SvgjsTspan1119" style="text-decoration:;">从右上角或者左下角出发</tspan></tspan></text></g></g><g id="SvgjsG1120"><path id="SvgjsPath1121" d="M136.25 386.5L73 386.5L73 575" stroke="#323232" stroke-width="2" fill="none" marker-end="url(#SvgjsMarker1122)"></path></g><g id="SvgjsG1124" transform="translate(320.75,585)"><path id="SvgjsPath1125" d="M 18 0Q 9 0 9 9L 9 61Q 9 70 0 70Q 9 70 9 79L 9 131Q 9 140 18 140" stroke="rgba(50,50,50,1)" stroke-width="2" fill="none"></path><path id="SvgjsPath1126" d="M 182 140Q 191 140 191 131L 191 79Q 191 70 200 70Q 191 70 191 61L 191 9Q 191 0 182 0" stroke="rgba(50,50,50,1)" stroke-width="2" fill="none"></path><path id="SvgjsPath1127" d="M 0 0L 200 0L 200 140L 0 140Z" stroke="none" fill="none"></path><g id="SvgjsG1128"><text id="SvgjsText1129" font-family="微软雅黑" text-anchor="start" font-size="13px" width="180px" fill="#323232" font-weight="400" align="middle" anchor="start" family="微软雅黑" size="13px" weight="400" font-style="" opacity="1" y="4.05" transform="rotate(0)"><tspan id="SvgjsTspan1130" dy="16" x="10"><tspan id="SvgjsTspan1131" style="text-decoration:;">1. 堆排</tspan></tspan><tspan id="SvgjsTspan1132" dy="16" x="10"><tspan id="SvgjsTspan1133" style="text-decoration:;">类似合并k个有序链表,每次将每</tspan></tspan><tspan id="SvgjsTspan1134" dy="16" x="10"><tspan id="SvgjsTspan1135" style="text-decoration:;">行开头入堆</tspan></tspan><tspan id="SvgjsTspan1136" dy="16" x="10"><tspan id="SvgjsTspan1137" style="text-decoration:;"> </tspan></tspan><tspan id="SvgjsTspan1138" dy="16" x="10"><tspan id="SvgjsTspan1139" style="text-decoration:;">2. 全局二分</tspan></tspan><tspan id="SvgjsTspan1140" dy="16" x="10"><tspan id="SvgjsTspan1141" style="text-decoration:;">lo, hi = matrix[0][0], matrix[-1]</tspan></tspan><tspan id="SvgjsTspan1142" dy="16" x="10"><tspan id="SvgjsTspan1143" style="text-decoration:;">[-1], 二分找到中间值,并利用IV</tspan></tspan><tspan id="SvgjsTspan1144" dy="16" x="10"><tspan id="SvgjsTspan1145" style="text-decoration:;">得到排名,跟k比较,再次二分</tspan></tspan></text></g></g><g id="SvgjsG1146"><path id="SvgjsPath1147" d="M328.75 386.5L419 386.5L419 569" stroke="#323232" stroke-width="2" fill="none" marker-end="url(#SvgjsMarker1148)"></path></g><g id="SvgjsG1150" transform="translate(45.25,355)"><path id="SvgjsPath1151" d="M 0 0L 120 0L 120 40L 0 40Z" stroke="none" fill="none"></path><g id="SvgjsG1152"><text id="SvgjsText1153" font-family="微软雅黑" text-anchor="middle" font-size="17px" width="120px" fill="#323232" font-weight="700" align="middle" anchor="middle" family="微软雅黑" size="17px" weight="700" font-style="" opacity="1" y="6.95" transform="rotate(0)"><tspan id="SvgjsTspan1154" dy="21" x="60"><tspan id="SvgjsTspan1155" style="text-decoration:;">强</tspan></tspan></text></g></g><g id="SvgjsG1156" transform="translate(325.25,355)"><path id="SvgjsPath1157" d="M 0 0L 120 0L 120 40L 0 40Z" stroke="none" fill="none"></path><g id="SvgjsG1158"><text id="SvgjsText1159" font-family="微软雅黑" text-anchor="middle" font-size="17px" width="120px" fill="#323232" font-weight="700" align="middle" anchor="middle" family="微软雅黑" size="17px" weight="700" font-style="" opacity="1" y="6.95" transform="rotate(0)"><tspan id="SvgjsTspan1160" dy="21" x="60"><tspan id="SvgjsTspan1161" style="text-decoration:;">弱</tspan></tspan></text></g></g><g id="SvgjsG1162" transform="translate(384,447)"><path id="SvgjsPath1163" d="M 0 0L 120 0L 120 40L 0 40Z" stroke="none" fill="none"></path><g id="SvgjsG1164"><text id="SvgjsText1165" font-family="微软雅黑" text-anchor="middle" font-size="27px" width="120px" fill="#323232" font-weight="700" align="middle" anchor="middle" family="微软雅黑" size="27px" weight="700" font-style="" opacity="1" y="-3.05" transform="rotate(0)"><tspan id="SvgjsTspan1166" dy="33" x="60"><tspan id="SvgjsTspan1167" style="text-decoration:;">II</tspan></tspan></text></g></g><g id="SvgjsG1168" transform="translate(702,447)"><path id="SvgjsPath1169" d="M 0 0L 120 0L 120 40L 0 40Z" stroke="none" fill="none"></path><g id="SvgjsG1170"><text id="SvgjsText1171" font-family="微软雅黑" text-anchor="middle" font-size="27px" width="120px" fill="#323232" font-weight="700" align="middle" anchor="middle" family="微软雅黑" size="27px" weight="700" font-style="" opacity="1" y="-3.05" transform="rotate(0)"><tspan id="SvgjsTspan1172" dy="33" x="60"><tspan id="SvgjsTspan1173" style="text-decoration:;">III</tspan></tspan></text></g></g><g id="SvgjsG1174" transform="translate(1031,442)"><path id="SvgjsPath1175" d="M 0 0L 120 0L 120 40L 0 40Z" stroke="none" fill="none"></path><g id="SvgjsG1176"><text id="SvgjsText1177" font-family="微软雅黑" text-anchor="middle" font-size="27px" width="120px" fill="#323232" font-weight="700" align="middle" anchor="middle" family="微软雅黑" size="27px" weight="700" font-style="" opacity="1" y="-3.05" transform="rotate(0)"><tspan id="SvgjsTspan1178" dy="33" x="60"><tspan id="SvgjsTspan1179" style="text-decoration:;">IV</tspan></tspan></text></g></g><g id="SvgjsG1180" transform="translate(32,578)"><path id="SvgjsPath1181" d="M 0 0L 120 0L 120 40L 0 40Z" stroke="none" fill="none"></path><g id="SvgjsG1182"><text id="SvgjsText1183" font-family="微软雅黑" text-anchor="middle" font-size="13px" width="120px" fill="#323232" font-weight="400" align="middle" anchor="middle" family="微软雅黑" size="13px" weight="400" font-style="" opacity="1" y="10.05" transform="rotate(0)"><tspan id="SvgjsTspan1184" dy="16" x="60"><tspan id="SvgjsTspan1185" style="text-decoration:;">直接计算</tspan></tspan></text></g></g><g id="SvgjsG1186" transform="translate(25,447)"><path id="SvgjsPath1187" d="M 0 0L 120 0L 120 40L 0 40Z" stroke="none" fill="none"></path><g id="SvgjsG1188"><text id="SvgjsText1189" font-family="微软雅黑" text-anchor="middle" font-size="27px" width="120px" fill="#323232" font-weight="700" align="middle" anchor="middle" family="微软雅黑" size="27px" weight="700" font-style="" opacity="1" y="-3.05" transform="rotate(0)"><tspan id="SvgjsTspan1190" dy="33" x="60"><tspan id="SvgjsTspan1191" style="text-decoration:;">I</tspan></tspan></text></g></g></svg>